<?xml version="1.0" encoding="UTF-8" standalone="no"?>
<!DOCTYPE svg PUBLIC "-//W3C//DTD SVG 1.1//EN"
 "http://www.w3.org/Graphics/SVG/1.1/DTD/svg11.dtd">
<!-- Generated by graphviz version 2.43.0 (0)
 -->
<!-- Title: CanvasInternals Pages: 1 -->
<svg width="1550pt" height="651pt"
 viewBox="0.00 0.00 1549.68 651.00" xmlns="http://www.w3.org/2000/svg" xmlns:xlink="http://www.w3.org/1999/xlink">
<g id="graph0" class="graph" transform="scale(1 1) rotate(0) translate(4 647)">
<title>CanvasInternals</title>
<polygon fill="white" stroke="transparent" points="-4,4 -4,-647 1545.68,-647 1545.68,4 -4,4"/>
<text text-anchor="middle" x="770.84" y="-628.6" font-family="Times,serif" font-size="13.00">Flyback.App canvas subsystem (CanvasServices.cs) — everything outside this box sees only NodeEditor</text>
<!-- IPointerAnchors -->
<g id="node1" class="node">
<title>IPointerAnchors</title>
<ellipse fill="lightyellow" stroke="#666666" stroke-dasharray="5,2" cx="1332.68" cy="-198" rx="61.17" ry="18"/>
<text text-anchor="middle" x="1332.68" y="-195.2" font-family="Helvetica,sans-Serif" font-size="11.00">IPointerAnchors</text>
</g>
<!-- PlatformAnchors -->
<g id="node2" class="node">
<title>PlatformAnchors</title>
<polygon fill="lightblue" stroke="#666666" stroke-dasharray="5,2" points="1386.18,-126 1279.18,-126 1279.18,-90 1386.18,-90 1386.18,-126"/>
<text text-anchor="middle" x="1332.68" y="-111.2" font-family="Helvetica,sans-Serif" font-size="11.00">PlatformAnchors</text>
<text text-anchor="middle" x="1332.68" y="-99.2" font-family="Helvetica,sans-Serif" font-size="11.00">[ext: Flyback.Ui]</text>
</g>
<!-- IPointerAnchors&#45;&gt;PlatformAnchors -->
<g id="edge1" class="edge">
<title>IPointerAnchors&#45;&gt;PlatformAnchors</title>
<path fill="none" stroke="#666666" stroke-dasharray="1,5" d="M1332.68,-179.61C1332.68,-166.39 1332.68,-148.03 1332.68,-133.35"/>
<polygon fill="#666666" stroke="#666666" points="1335.13,-133.05 1332.68,-126.05 1330.23,-133.05 1335.13,-133.05"/>
<text text-anchor="middle" x="1342.68" y="-150.8" font-family="Helvetica,sans-Serif" font-size="9.00">impl</text>
</g>
<!-- NodeGeometry -->
<g id="node3" class="node">
<title>NodeGeometry</title>
<polygon fill="lightblue" stroke="black" points="837.68,-36 737.68,-36 737.68,0 837.68,0 837.68,-36"/>
<text text-anchor="middle" x="787.68" y="-15.2" font-family="Helvetica,sans-Serif" font-size="11.00">NodeGeometry</text>
</g>
<!-- Repaint -->
<g id="node4" class="node">
<title>Repaint</title>
<polygon fill="lightblue" stroke="black" points="1461.18,-36 1402.18,-36 1402.18,0 1461.18,0 1461.18,-36"/>
<text text-anchor="middle" x="1431.68" y="-15.2" font-family="Helvetica,sans-Serif" font-size="11.00">Repaint</text>
</g>
<!-- CanvasReport -->
<g id="node5" class="node">
<title>CanvasReport</title>
<polygon fill="lightblue" stroke="black" points="285.68,-36 191.68,-36 191.68,0 285.68,0 285.68,-36"/>
<text text-anchor="middle" x="238.68" y="-15.2" font-family="Helvetica,sans-Serif" font-size="11.00">CanvasReport</text>
</g>
<!-- CanvasHistory -->
<g id="node6" class="node">
<title>CanvasHistory</title>
<polygon fill="lightblue" stroke="black" points="785.18,-126 688.18,-126 688.18,-90 785.18,-90 785.18,-126"/>
<text text-anchor="middle" x="736.68" y="-105.2" font-family="Helvetica,sans-Serif" font-size="11.00">CanvasHistory</text>
</g>
<!-- CanvasHistory&#45;&gt;NodeGeometry -->
<g id="edge2" class="edge">
<title>CanvasHistory&#45;&gt;NodeGeometry</title>
<path fill="none" stroke="black" d="M687.77,-107.48C566.84,-108.04 263.91,-105.33 269.68,-64"/>
</g>
<!-- PatchHistory -->
<g id="node20" class="node">
<title>PatchHistory</title>
<polygon fill="mistyrose" stroke="firebrick" stroke-dasharray="5,2" points="984.68,-36 862.68,-36 862.68,0 984.68,0 984.68,-36"/>
<text text-anchor="middle" x="923.68" y="-21.2" font-family="Helvetica,sans-Serif" font-size="11.00">PatchHistory</text>
<text text-anchor="middle" x="923.68" y="-9.2" font-family="Helvetica,sans-Serif" font-size="11.00">[ext: Flyback.Core]</text>
</g>
<!-- CanvasHistory&#45;&gt;PatchHistory -->
<g id="edge75" class="edge">
<title>CanvasHistory&#45;&gt;PatchHistory</title>
<path fill="none" stroke="firebrick" stroke-dasharray="1,5" d="M785.23,-93.48C805.9,-86.94 829.97,-78.27 850.68,-68 866.33,-60.24 882.58,-49.62 895.77,-40.25"/>
<polygon fill="firebrick" stroke="firebrick" points="897.35,-42.13 901.6,-36.05 894.48,-38.16 897.35,-42.13"/>
<text text-anchor="middle" x="876.18" y="-60.8" font-family="Helvetica,sans-Serif" font-size="9.00" fill="firebrick">new</text>
</g>
<!-- CanvasSelection -->
<g id="node7" class="node">
<title>CanvasSelection</title>
<polygon fill="lightblue" stroke="black" points="730.18,-216 623.18,-216 623.18,-180 730.18,-180 730.18,-216"/>
<text text-anchor="middle" x="676.68" y="-195.2" font-family="Helvetica,sans-Serif" font-size="11.00">CanvasSelection</text>
</g>
<!-- CanvasSelection&#45;&gt;NodeGeometry -->
<g id="edge6" class="edge">
<title>CanvasSelection&#45;&gt;NodeGeometry</title>
<path fill="none" stroke="black" d="M269.68,-107C256.31,-93.34 267.04,-82.93 269.68,-64"/>
</g>
<!-- CanvasSelection&#45;&gt;Repaint -->
<g id="edge4" class="edge">
<title>CanvasSelection&#45;&gt;Repaint</title>
<path fill="none" stroke="black" d="M663.25,-179.6C646.09,-155.79 621.77,-115.26 649.68,-109"/>
</g>
<!-- CanvasSelection&#45;&gt;CanvasReport -->
<g id="edge5" class="edge">
<title>CanvasSelection&#45;&gt;CanvasReport</title>
<path fill="none" stroke="black" d="M622.96,-192.62C523.95,-183.43 318.35,-158.73 269.68,-109"/>
<path fill="none" stroke="black" d="M269.68,-107C253.73,-89.66 228.99,-85.47 238.68,-64"/>
</g>
<!-- CanvasSelection&#45;&gt;CanvasHistory -->
<g id="edge3" class="edge">
<title>CanvasSelection&#45;&gt;CanvasHistory</title>
<path fill="none" stroke="black" d="M675.78,-179.78C676.05,-171.54 677.45,-161.79 681.68,-154"/>
</g>
<!-- Viewport -->
<g id="node8" class="node">
<title>Viewport</title>
<polygon fill="lightblue" stroke="black" points="577.18,-297 512.18,-297 512.18,-261 577.18,-261 577.18,-297"/>
<text text-anchor="middle" x="544.68" y="-276.2" font-family="Helvetica,sans-Serif" font-size="11.00">Viewport</text>
</g>
<!-- Viewport&#45;&gt;Repaint -->
<g id="edge9" class="edge">
<title>Viewport&#45;&gt;Repaint</title>
<path fill="none" stroke="black" d="M511.94,-265.61C458.63,-243.65 362.92,-195.73 403.68,-148 439.62,-105.91 595.66,-121.04 649.68,-109"/>
<path fill="none" stroke="black" d="M649.68,-107C663.04,-103.51 662.67,-94.61 675.68,-90 777.24,-54.04 810.85,-84.18 916.68,-64"/>
<path fill="none" stroke="black" d="M916.68,-62C1093.74,-28.24 1310.05,-20.99 1394.98,-19.43"/>
<polygon fill="black" stroke="black" points="1395.11,-21.88 1402.06,-19.3 1395.02,-16.98 1395.11,-21.88"/>
</g>
<!-- Viewport&#45;&gt;CanvasHistory -->
<g id="edge7" class="edge">
<title>Viewport&#45;&gt;CanvasHistory</title>
<path fill="none" stroke="black" d="M552.19,-260.68C562.43,-238.95 582.75,-201.89 610.68,-180 637.13,-159.28 665.63,-183.53 681.68,-154"/>
<path fill="none" stroke="black" d="M681.68,-152C685.81,-143.7 692.38,-136.52 699.56,-130.53"/>
<polygon fill="black" stroke="black" points="701.13,-132.41 705.15,-126.18 698.12,-128.55 701.13,-132.41"/>
</g>
<!-- Viewport&#45;&gt;CanvasSelection -->
<g id="edge8" class="edge">
<title>Viewport&#45;&gt;CanvasSelection</title>
<path fill="none" stroke="black" d="M577.55,-269.26C594.15,-263.28 613.33,-253.7 625.68,-239"/>
</g>
<!-- KnobLinking -->
<g id="node9" class="node">
<title>KnobLinking</title>
<polygon fill="lightblue" stroke="black" points="1503.18,-297 1420.18,-297 1420.18,-261 1503.18,-261 1503.18,-297"/>
<text text-anchor="middle" x="1461.68" y="-276.2" font-family="Helvetica,sans-Serif" font-size="11.00">KnobLinking</text>
</g>
<!-- KnobLinking&#45;&gt;NodeGeometry -->
<g id="edge12" class="edge">
<title>KnobLinking&#45;&gt;NodeGeometry</title>
<path fill="none" stroke="black" d="M1431.68,-238C1364.57,-199.57 1482.44,-122.34 1431.68,-64"/>
<path fill="none" stroke="black" d="M1431.68,-62C1384.2,-18.17 914.53,-45.92 850.68,-36 848.87,-35.72 847.03,-35.4 845.19,-35.06"/>
<polygon fill="black" stroke="black" points="845.36,-32.6 838.02,-33.62 844.4,-37.4 845.36,-32.6"/>
</g>
<!-- KnobLinking&#45;&gt;Repaint -->
<g id="edge11" class="edge">
<title>KnobLinking&#45;&gt;Repaint</title>
<path fill="none" stroke="black" d="M1431.68,-62C1427.29,-56.95 1425.97,-50.17 1426.12,-43.49"/>
<polygon fill="black" stroke="black" points="1428.57,-43.56 1426.77,-36.36 1423.69,-43.11 1428.57,-43.56"/>
</g>
<!-- KnobLinking&#45;&gt;CanvasSelection -->
<g id="edge10" class="edge">
<title>KnobLinking&#45;&gt;CanvasSelection</title>
<path fill="none" stroke="black" d="M1452.81,-260.99C1447.72,-252.98 1440.58,-244.09 1431.68,-239"/>
<path fill="none" stroke="black" d="M1431.68,-238C1365.89,-200.32 824.85,-225.87 749.68,-216 745.63,-215.47 741.48,-214.81 737.3,-214.07"/>
<polygon fill="black" stroke="black" points="737.61,-211.63 730.28,-212.74 736.7,-216.45 737.61,-211.63"/>
</g>
<!-- UndescribedTags -->
<g id="node10" class="node">
<title>UndescribedTags</title>
<polygon fill="lightblue" stroke="black" points="1244.68,-297 1134.68,-297 1134.68,-261 1244.68,-261 1244.68,-297"/>
<text text-anchor="middle" x="1189.68" y="-276.2" font-family="Helvetica,sans-Serif" font-size="11.00">UndescribedTags</text>
</g>
<!-- UndescribedTags&#45;&gt;NodeGeometry -->
<g id="edge15" class="edge">
<title>UndescribedTags&#45;&gt;NodeGeometry</title>
<path fill="none" stroke="black" d="M1166.14,-260.69C1159.98,-254.65 1154.33,-247.28 1151.68,-239"/>
<path fill="none" stroke="black" d="M1151.68,-238C1127.29,-161.66 1114.17,-136.18 1048.68,-90 1047.61,-89.24 920.98,-54.98 844.52,-34.34"/>
<polygon fill="black" stroke="black" points="845.14,-31.96 837.74,-32.5 843.86,-36.69 845.14,-31.96"/>
</g>
<!-- UndescribedTags&#45;&gt;Repaint -->
<g id="edge14" class="edge">
<title>UndescribedTags&#45;&gt;Repaint</title>
<path fill="none" stroke="black" d="M1151.68,-238C1144.94,-216.91 1177.51,-220.53 1182.68,-199"/>
</g>
<!-- UndescribedTags&#45;&gt;CanvasSelection -->
<g id="edge13" class="edge">
<title>UndescribedTags&#45;&gt;CanvasSelection</title>
<path fill="none" stroke="black" d="M1134.55,-271.83C1050.96,-262.11 887.32,-241.67 749.68,-216 745.67,-215.25 741.54,-214.43 737.38,-213.57"/>
<polygon fill="black" stroke="black" points="737.74,-211.14 730.39,-212.08 736.72,-215.93 737.74,-211.14"/>
</g>
<!-- RemapMarks -->
<g id="node11" class="node">
<title>RemapMarks</title>
<polygon fill="lightblue" stroke="black" points="894.68,-297 806.68,-297 806.68,-261 894.68,-261 894.68,-297"/>
<text text-anchor="middle" x="850.68" y="-276.2" font-family="Helvetica,sans-Serif" font-size="11.00">RemapMarks</text>
</g>
<!-- RemapMarks&#45;&gt;NodeGeometry -->
<g id="edge19" class="edge">
<title>RemapMarks&#45;&gt;NodeGeometry</title>
<path fill="none" stroke="black" d="M856.24,-260.86C868.84,-218.3 893.92,-108.1 831.68,-64"/>
<path fill="none" stroke="black" d="M831.68,-62C823.03,-56.25 814.61,-48.67 807.48,-41.48"/>
<polygon fill="black" stroke="black" points="808.92,-39.44 802.3,-36.08 805.39,-42.83 808.92,-39.44"/>
</g>
<!-- RemapMarks&#45;&gt;Repaint -->
<g id="edge18" class="edge">
<title>RemapMarks&#45;&gt;Repaint</title>
<path fill="none" stroke="black" d="M866.17,-260.66C871.34,-254.21 876.77,-246.59 880.68,-239 917.04,-168.41 838.96,-80.25 916.68,-64"/>
</g>
<!-- RemapMarks&#45;&gt;CanvasHistory -->
<g id="edge16" class="edge">
<title>RemapMarks&#45;&gt;CanvasHistory</title>
<path fill="none" stroke="black" d="M806.29,-269.56C790.58,-263.93 775.18,-254.56 768.68,-239"/>
</g>
<!-- RemapMarks&#45;&gt;CanvasSelection -->
<g id="edge17" class="edge">
<title>RemapMarks&#45;&gt;CanvasSelection</title>
<path fill="none" stroke="black" d="M806.65,-262.45C788.75,-255.75 768.01,-247.51 749.68,-239 737.18,-233.2 723.87,-226.17 712.08,-219.63"/>
<polygon fill="black" stroke="black" points="713.01,-217.34 705.7,-216.06 710.62,-221.62 713.01,-217.34"/>
</g>
<!-- HeldModules -->
<g id="node12" class="node">
<title>HeldModules</title>
<polygon fill="lightblue" stroke="black" points="1007.18,-297 920.18,-297 920.18,-261 1007.18,-261 1007.18,-297"/>
<text text-anchor="middle" x="963.68" y="-276.2" font-family="Helvetica,sans-Serif" font-size="11.00">HeldModules</text>
</g>
<!-- HeldModules&#45;&gt;Repaint -->
<g id="edge21" class="edge">
<title>HeldModules&#45;&gt;Repaint</title>
<path fill="none" stroke="black" d="M968.81,-260.84C975.71,-239.94 989.59,-204.42 1010.68,-180 1070.94,-110.21 1094.52,-91 1182.68,-64"/>
<path fill="none" stroke="black" d="M1182.68,-62C1251.97,-27.15 1344.32,-19.93 1394.83,-18.79"/>
<polygon fill="black" stroke="black" points="1395.01,-21.24 1401.97,-18.67 1394.93,-16.34 1395.01,-21.24"/>
</g>
<!-- HeldModules&#45;&gt;CanvasHistory -->
<g id="edge20" class="edge">
<title>HeldModules&#45;&gt;CanvasHistory</title>
<path fill="none" stroke="black" d="M940.67,-260.87C899.03,-229.87 811.28,-164.54 765.64,-130.56"/>
<polygon fill="black" stroke="black" points="766.83,-128.4 759.76,-126.18 763.91,-132.33 766.83,-128.4"/>
</g>
<!-- SocketDial -->
<g id="node13" class="node">
<title>SocketDial</title>
<polygon fill="lightblue" stroke="black" points="1343.68,-297 1269.68,-297 1269.68,-261 1343.68,-261 1343.68,-297"/>
<text text-anchor="middle" x="1306.68" y="-276.2" font-family="Helvetica,sans-Serif" font-size="11.00">SocketDial</text>
</g>
<!-- SocketDial&#45;&gt;IPointerAnchors -->
<g id="edge25" class="edge">
<title>SocketDial&#45;&gt;IPointerAnchors</title>
<path fill="none" stroke="black" d="M1312.32,-260.86C1315.97,-249.78 1320.76,-235.21 1324.79,-222.99"/>
<polygon fill="black" stroke="black" points="1327.19,-223.52 1327.05,-216.11 1322.53,-221.99 1327.19,-223.52"/>
</g>
<!-- SocketDial&#45;&gt;Repaint -->
<g id="edge24" class="edge">
<title>SocketDial&#45;&gt;Repaint</title>
<path fill="none" stroke="black" d="M1269.59,-263.29C1230.55,-246.61 1175.64,-219.12 1182.68,-199"/>
</g>
<!-- SocketDial&#45;&gt;CanvasHistory -->
<g id="edge22" class="edge">
<title>SocketDial&#45;&gt;CanvasHistory</title>
<path fill="none" stroke="black" d="M1269.41,-264.38C1265.48,-263.15 1261.52,-262 1257.68,-261 1203.08,-246.82 1187.4,-252.72 1132.68,-239 1006.81,-207.43 862.96,-156.3 788.09,-128.5"/>
<polygon fill="black" stroke="black" points="788.91,-126.19 781.5,-126.05 787.2,-130.79 788.91,-126.19"/>
</g>
<!-- SocketDial&#45;&gt;CanvasSelection -->
<g id="edge23" class="edge">
<title>SocketDial&#45;&gt;CanvasSelection</title>
<path fill="none" stroke="black" d="M1269.5,-264.04C1265.54,-262.88 1261.55,-261.83 1257.68,-261 1146.87,-237.25 861.59,-233.9 749.68,-216 745.65,-215.35 741.51,-214.61 737.34,-213.81"/>
<polygon fill="black" stroke="black" points="737.68,-211.37 730.33,-212.39 736.71,-216.18 737.68,-211.37"/>
</g>
<!-- CanvasEdits -->
<g id="node14" class="node">
<title>CanvasEdits</title>
<polygon fill="lightblue" stroke="black" points="384.68,-378 300.68,-378 300.68,-342 384.68,-342 384.68,-378"/>
<text text-anchor="middle" x="342.68" y="-357.2" font-family="Helvetica,sans-Serif" font-size="11.00">CanvasEdits</text>
</g>
<!-- CanvasEdits&#45;&gt;NodeGeometry -->
<g id="edge31" class="edge">
<title>CanvasEdits&#45;&gt;NodeGeometry</title>
<path fill="none" stroke="black" d="M156.68,-152C154.64,-133 148.63,-126.33 156.68,-109"/>
</g>
<!-- CanvasEdits&#45;&gt;Repaint -->
<g id="edge29" class="edge">
<title>CanvasEdits&#45;&gt;Repaint</title>
<path fill="none" stroke="black" d="M167.68,-319C161.09,-309.08 218.68,-113.52 250.68,-90 274.32,-72.62 1197.15,-29.68 1394.7,-20.67"/>
<polygon fill="black" stroke="black" points="1395.08,-23.11 1401.96,-20.34 1394.85,-18.21 1395.08,-23.11"/>
</g>
<!-- CanvasEdits&#45;&gt;CanvasReport -->
<g id="edge30" class="edge">
<title>CanvasEdits&#45;&gt;CanvasReport</title>
<path fill="none" stroke="black" d="M300.37,-354.05C255.23,-348.01 187.55,-336.51 167.68,-320"/>
<path fill="none" stroke="black" d="M167.68,-319C111.16,-272.02 132.2,-223.3 156.68,-154"/>
<path fill="none" stroke="black" d="M156.68,-152C153.52,-122.52 97.25,-137.42 105.68,-109"/>
</g>
<!-- CanvasEdits&#45;&gt;CanvasHistory -->
<g id="edge26" class="edge">
<title>CanvasEdits&#45;&gt;CanvasHistory</title>
<path fill="none" stroke="black" d="M167.68,-319C157.18,-305.79 406.76,-159.58 422.68,-154"/>
<path fill="none" stroke="black" d="M422.68,-152C470.93,-125.67 614.55,-135.58 668.68,-126 672.67,-125.29 676.78,-124.48 680.9,-123.61"/>
<polygon fill="black" stroke="black" points="681.52,-125.98 687.83,-122.08 680.46,-121.19 681.52,-125.98"/>
</g>
<!-- CanvasEdits&#45;&gt;CanvasSelection -->
<g id="edge27" class="edge">
<title>CanvasEdits&#45;&gt;CanvasSelection</title>
<path fill="none" stroke="black" d="M357.62,-341.86C377.6,-319.97 415.13,-282.38 454.68,-261 505.58,-233.49 569.79,-217.28 616.05,-208.38"/>
<polygon fill="black" stroke="black" points="616.6,-210.76 623.03,-207.06 615.69,-205.95 616.6,-210.76"/>
</g>
<!-- CanvasEdits&#45;&gt;Viewport -->
<g id="edge28" class="edge">
<title>CanvasEdits&#45;&gt;Viewport</title>
<path fill="none" stroke="black" d="M385.14,-358.48C442.11,-356.65 538,-349.21 553.68,-320"/>
<path fill="none" stroke="black" d="M553.68,-319C556.17,-314.37 556.4,-309.07 555.49,-303.91"/>
<polygon fill="black" stroke="black" points="557.82,-303.15 553.65,-297.02 553.09,-304.41 557.82,-303.15"/>
</g>
<!-- CanvasTips -->
<g id="node15" class="node">
<title>CanvasTips</title>
<polygon fill="lightblue" stroke="black" points="773.68,-378 693.68,-378 693.68,-342 773.68,-342 773.68,-378"/>
<text text-anchor="middle" x="733.68" y="-357.2" font-family="Helvetica,sans-Serif" font-size="11.00">CanvasTips</text>
</g>
<!-- CanvasTips&#45;&gt;NodeGeometry -->
<g id="edge36" class="edge">
<title>CanvasTips&#45;&gt;NodeGeometry</title>
<path fill="none" stroke="black" d="M707.72,-341.9C695.61,-334.45 680.78,-326.06 666.68,-320"/>
<path fill="none" stroke="black" d="M666.68,-319C597.9,-289.44 570.83,-320.28 499.68,-297 479.03,-290.24 149.08,-129.36 156.68,-109"/>
</g>
<!-- CanvasTips&#45;&gt;CanvasHistory -->
<g id="edge32" class="edge">
<title>CanvasTips&#45;&gt;CanvasHistory</title>
<path fill="none" stroke="black" d="M666.68,-278C653.37,-222.23 774.23,-256.07 768.68,-199"/>
<path fill="none" stroke="black" d="M768.68,-197C757.54,-155.33 662.49,-192.63 681.68,-154"/>
</g>
<!-- CanvasTips&#45;&gt;CanvasSelection -->
<g id="edge33" class="edge">
<title>CanvasTips&#45;&gt;CanvasSelection</title>
<path fill="none" stroke="black" d="M666.68,-319C650.76,-312.16 670.7,-296.86 666.68,-280"/>
<path fill="none" stroke="black" d="M666.68,-278C660.84,-253.54 609.51,-258.26 625.68,-239"/>
</g>
<!-- CanvasTips&#45;&gt;UndescribedTags -->
<g id="edge35" class="edge">
<title>CanvasTips&#45;&gt;UndescribedTags</title>
<path fill="none" stroke="black" d="M773.77,-355.67C848.06,-349.26 1004.29,-334.53 1056.68,-320"/>
<path fill="none" stroke="black" d="M1056.68,-319C1079.9,-312.56 1105.3,-305.19 1127.63,-298.6"/>
<polygon fill="black" stroke="black" points="1128.44,-300.92 1134.46,-296.59 1127.05,-296.22 1128.44,-300.92"/>
</g>
<!-- CanvasTips&#45;&gt;RemapMarks -->
<g id="edge34" class="edge">
<title>CanvasTips&#45;&gt;RemapMarks</title>
<path fill="none" stroke="black" d="M759.07,-341.86C776.7,-329.95 800.31,-314.01 819.15,-301.29"/>
<polygon fill="black" stroke="black" points="820.91,-303.06 825.34,-297.11 818.17,-299 820.91,-303.06"/>
</g>
<!-- CanvasClipboard -->
<g id="node16" class="node">
<title>CanvasClipboard</title>
<polygon fill="lightblue" stroke="black" points="691.18,-459 582.18,-459 582.18,-423 691.18,-423 691.18,-459"/>
<text text-anchor="middle" x="636.68" y="-438.2" font-family="Helvetica,sans-Serif" font-size="11.00">CanvasClipboard</text>
</g>
<!-- CanvasClipboard&#45;&gt;CanvasHistory -->
<g id="edge37" class="edge">
<title>CanvasClipboard&#45;&gt;CanvasHistory</title>
<path fill="none" stroke="black" d="M473.68,-400C440.91,-386.2 491.72,-350.64 473.68,-320"/>
<path fill="none" stroke="black" d="M473.68,-319C467.94,-308.36 462.77,-307.97 457.68,-297 430.14,-237.65 365.24,-185.34 422.68,-154"/>
</g>
<!-- CanvasClipboard&#45;&gt;CanvasSelection -->
<g id="edge38" class="edge">
<title>CanvasClipboard&#45;&gt;CanvasSelection</title>
<path fill="none" stroke="black" d="M473.68,-319C417.88,-226.32 592.66,-278.31 625.68,-239"/>
<path fill="none" stroke="black" d="M625.68,-238C630.81,-231.72 637.14,-225.86 643.58,-220.69"/>
<polygon fill="black" stroke="black" points="645.43,-222.36 649.49,-216.14 642.45,-218.47 645.43,-222.36"/>
</g>
<!-- CanvasClipboard&#45;&gt;CanvasEdits -->
<g id="edge39" class="edge">
<title>CanvasClipboard&#45;&gt;CanvasEdits</title>
<path fill="none" stroke="black" d="M582.05,-431.56C549.71,-425.44 508.41,-415.63 473.68,-401"/>
<path fill="none" stroke="black" d="M473.68,-400C465.85,-396.7 425.73,-384.87 391.93,-375.1"/>
<polygon fill="black" stroke="black" points="392.24,-372.64 384.83,-373.05 390.88,-377.35 392.24,-372.64"/>
</g>
<!-- CanvasGestures -->
<g id="node17" class="node">
<title>CanvasGestures</title>
<polygon fill="lightblue" stroke="black" points="926.18,-459 819.18,-459 819.18,-423 926.18,-423 926.18,-459"/>
<text text-anchor="middle" x="872.68" y="-438.2" font-family="Helvetica,sans-Serif" font-size="11.00">CanvasGestures</text>
</g>
<!-- CanvasGestures&#45;&gt;NodeGeometry -->
<g id="edge50" class="edge">
<title>CanvasGestures&#45;&gt;NodeGeometry</title>
<path fill="none" stroke="black" d="M963.68,-319C967.72,-292.57 1004.62,-319.1 1019.68,-297 1031.44,-279.74 1028.53,-207.1 1012.68,-180 976.83,-118.71 941.47,-126.7 880.68,-90 859.57,-77.26 852.22,-77.64 831.68,-64"/>
</g>
<!-- CanvasGestures&#45;&gt;Repaint -->
<g id="edge49" class="edge">
<title>CanvasGestures&#45;&gt;Repaint</title>
<path fill="none" stroke="black" d="M896.69,-422.89C913.83,-410.59 937.34,-393.5 957.68,-378 957.68,-378 1182.68,-199 1182.68,-199"/>
<path fill="none" stroke="black" d="M1182.68,-197C1193.32,-138.85 1129.87,-90.56 1182.68,-64"/>
</g>
<!-- CanvasGestures&#45;&gt;CanvasHistory -->
<g id="edge40" class="edge">
<title>CanvasGestures&#45;&gt;CanvasHistory</title>
<path fill="none" stroke="black" d="M811.68,-400C767.94,-360.33 907.44,-411.1 938.68,-361"/>
<path fill="none" stroke="black" d="M938.68,-359C975.55,-299.87 844.32,-345.9 794.68,-297 774.56,-277.17 779.57,-265.07 768.68,-239"/>
<path fill="none" stroke="black" d="M768.68,-238C761.26,-222.34 773.16,-215.74 768.68,-199"/>
</g>
<!-- CanvasGestures&#45;&gt;CanvasSelection -->
<g id="edge41" class="edge">
<title>CanvasGestures&#45;&gt;CanvasSelection</title>
<path fill="none" stroke="black" d="M811.68,-400C791.48,-380.26 802.9,-364.39 785.68,-342 750.81,-296.67 735.43,-289.23 685.68,-261 660.98,-246.98 607.71,-260.99 625.68,-239"/>
</g>
<!-- CanvasGestures&#45;&gt;Viewport -->
<g id="edge42" class="edge">
<title>CanvasGestures&#45;&gt;Viewport</title>
<path fill="none" stroke="black" d="M840.34,-422.96C830.47,-416.84 820.03,-409.36 811.68,-401"/>
<path fill="none" stroke="black" d="M811.68,-400C769.98,-358.2 735.16,-400.74 680.68,-378 636.99,-359.76 593.9,-325.12 568.3,-302.3"/>
<polygon fill="black" stroke="black" points="569.63,-300.2 562.79,-297.33 566.35,-303.84 569.63,-300.2"/>
</g>
<!-- CanvasGestures&#45;&gt;KnobLinking -->
<g id="edge46" class="edge">
<title>CanvasGestures&#45;&gt;KnobLinking</title>
<path fill="none" stroke="black" d="M926.36,-427.06C957.67,-419.5 997.92,-409.75 1033.68,-401 1075.04,-390.88 1085.68,-389.48 1126.68,-378 1178.26,-363.56 1190.35,-357.27 1241.68,-342 1300.35,-324.55 1368.19,-305.62 1412.85,-293.33"/>
<polygon fill="black" stroke="black" points="1413.71,-295.63 1419.81,-291.41 1412.41,-290.91 1413.71,-295.63"/>
</g>
<!-- CanvasGestures&#45;&gt;RemapMarks -->
<g id="edge47" class="edge">
<title>CanvasGestures&#45;&gt;RemapMarks</title>
<path fill="none" stroke="black" d="M938.68,-359C949.57,-341.53 960.57,-340.35 963.68,-320"/>
<path fill="none" stroke="black" d="M963.68,-319C964.22,-315.48 931.76,-304.54 901.49,-295.14"/>
<polygon fill="black" stroke="black" points="902.09,-292.76 894.68,-293.04 900.65,-297.45 902.09,-292.76"/>
</g>
<!-- CanvasGestures&#45;&gt;HeldModules -->
<g id="edge45" class="edge">
<title>CanvasGestures&#45;&gt;HeldModules</title>
<path fill="none" stroke="black" d="M963.68,-319C964.41,-314.23 964.73,-309.1 964.82,-304.17"/>
<polygon fill="black" stroke="black" points="967.27,-304.16 964.8,-297.17 962.37,-304.18 967.27,-304.16"/>
</g>
<!-- CanvasGestures&#45;&gt;SocketDial -->
<g id="edge44" class="edge">
<title>CanvasGestures&#45;&gt;SocketDial</title>
<path fill="none" stroke="black" d="M926.23,-426.34C952.7,-419.3 985.04,-410.25 1013.68,-401 1041.65,-391.96 1049.01,-390.35 1075.68,-378 1105.29,-364.28 1110.07,-355.72 1139.68,-342 1162.01,-331.65 1221.11,-310.21 1262.64,-295.47"/>
<polygon fill="black" stroke="black" points="1263.62,-297.72 1269.4,-293.07 1261.99,-293.1 1263.62,-297.72"/>
</g>
<!-- CanvasGestures&#45;&gt;CanvasEdits -->
<g id="edge43" class="edge">
<title>CanvasGestures&#45;&gt;CanvasEdits</title>
<path fill="none" stroke="black" d="M821.35,-422.95C795.1,-414.84 762.47,-405.7 732.68,-400 611.69,-376.86 466.79,-366.94 392.3,-363.12"/>
<polygon fill="black" stroke="black" points="391.99,-360.65 384.88,-362.75 391.75,-365.55 391.99,-360.65"/>
</g>
<!-- CanvasGestures&#45;&gt;CanvasTips -->
<g id="edge48" class="edge">
<title>CanvasGestures&#45;&gt;CanvasTips</title>
<path fill="none" stroke="black" d="M811.68,-400C802.83,-391.13 791.55,-383.92 780.34,-378.22"/>
<polygon fill="black" stroke="black" points="781.13,-375.88 773.76,-375.04 779,-380.29 781.13,-375.88"/>
</g>
<!-- CanvasPainter -->
<g id="node18" class="node">
<title>CanvasPainter</title>
<polygon fill="lightblue" stroke="black" points="1186.18,-540 1091.18,-540 1091.18,-504 1186.18,-504 1186.18,-540"/>
<text text-anchor="middle" x="1138.68" y="-519.2" font-family="Helvetica,sans-Serif" font-size="11.00">CanvasPainter</text>
</g>
<!-- CanvasPainter&#45;&gt;NodeGeometry -->
<g id="edge60" class="edge">
<title>CanvasPainter&#45;&gt;NodeGeometry</title>
<path fill="none" stroke="black" d="M1143,-503.62C1143.81,-496.29 1143.24,-488.06 1138.68,-482"/>
<path fill="none" stroke="black" d="M1138.68,-481C1116.47,-451.44 837.03,-480.11 806.68,-459 783.49,-442.87 798.91,-422.58 780.68,-401"/>
<path fill="none" stroke="black" d="M780.68,-400C728.85,-359.76 698.56,-393 634.68,-378 426.85,-329.2 374.62,-291.06 207.68,-158 183.1,-138.41 143.43,-137.51 156.68,-109"/>
</g>
<!-- CanvasPainter&#45;&gt;Repaint -->
<g id="edge59" class="edge">
<title>CanvasPainter&#45;&gt;Repaint</title>
<path fill="none" stroke="black" d="M1138.68,-481C1127.39,-464.25 1449.85,-333.72 1464.68,-320"/>
<path fill="none" stroke="black" d="M1464.68,-319C1484.73,-304.6 1498.1,-314.33 1515.68,-297 1535.8,-277.17 1541.68,-267.25 1541.68,-239 1541.68,-239 1541.68,-239 1541.68,-107 1541.68,-68.53 1500.14,-44.11 1468.12,-31"/>
<polygon fill="black" stroke="black" points="1468.86,-28.66 1461.45,-28.37 1467.06,-33.22 1468.86,-28.66"/>
</g>
<!-- CanvasPainter&#45;&gt;CanvasHistory -->
<g id="edge51" class="edge">
<title>CanvasPainter&#45;&gt;CanvasHistory</title>
<path fill="none" stroke="black" d="M1260.68,-359C1317.11,-335.92 1394.31,-308.97 1356.68,-261 1321.32,-215.93 938.65,-144.51 792.75,-118.7"/>
<polygon fill="black" stroke="black" points="792.88,-116.24 785.56,-117.44 792.03,-121.07 792.88,-116.24"/>
</g>
<!-- CanvasPainter&#45;&gt;CanvasSelection -->
<g id="edge52" class="edge">
<title>CanvasPainter&#45;&gt;CanvasSelection</title>
<path fill="none" stroke="black" d="M780.68,-400C751.01,-365.49 717.32,-404.99 680.68,-378 627.19,-338.59 583.34,-290.2 625.68,-239"/>
</g>
<!-- CanvasPainter&#45;&gt;Viewport -->
<g id="edge53" class="edge">
<title>CanvasPainter&#45;&gt;Viewport</title>
<path fill="none" stroke="black" d="M1138.68,-481C1128.99,-466.63 1147.04,-457.18 1138.68,-442"/>
<path fill="none" stroke="black" d="M1138.68,-440C1136.23,-435.54 790.6,-343.31 785.68,-342 714.87,-323.06 632.07,-302 584.27,-289.94"/>
<polygon fill="black" stroke="black" points="584.86,-287.56 577.48,-288.23 583.66,-292.31 584.86,-287.56"/>
</g>
<!-- CanvasPainter&#45;&gt;KnobLinking -->
<g id="edge57" class="edge">
<title>CanvasPainter&#45;&gt;KnobLinking</title>
<path fill="none" stroke="black" d="M1138.68,-440C1110.8,-381.73 1204.49,-392.86 1260.68,-361"/>
<path fill="none" stroke="black" d="M1260.68,-359C1297.16,-344.08 1404.64,-346.64 1433.68,-320"/>
<path fill="none" stroke="black" d="M1433.68,-319C1438.73,-314.37 1443.43,-308.68 1447.48,-303.11"/>
<polygon fill="black" stroke="black" points="1449.63,-304.3 1451.6,-297.15 1445.6,-301.51 1449.63,-304.3"/>
</g>
<!-- CanvasPainter&#45;&gt;UndescribedTags -->
<g id="edge58" class="edge">
<title>CanvasPainter&#45;&gt;UndescribedTags</title>
<path fill="none" stroke="black" d="M1056.68,-359C1049.74,-343.12 1039.98,-324.63 1056.68,-320"/>
</g>
<!-- CanvasPainter&#45;&gt;RemapMarks -->
<g id="edge56" class="edge">
<title>CanvasPainter&#45;&gt;RemapMarks</title>
<path fill="none" stroke="black" d="M1138.68,-440C1115.8,-394.86 1076.95,-407.37 1056.68,-361"/>
<path fill="none" stroke="black" d="M1056.68,-359C1017.83,-298.7 976.46,-317.34 907.68,-297 905.73,-296.42 903.74,-295.83 901.74,-295.24"/>
<polygon fill="black" stroke="black" points="902.27,-292.84 894.86,-293.2 900.88,-297.54 902.27,-292.84"/>
</g>
<!-- CanvasPainter&#45;&gt;SocketDial -->
<g id="edge55" class="edge">
<title>CanvasPainter&#45;&gt;SocketDial</title>
<path fill="none" stroke="black" d="M1138.68,-440C1106.25,-375.13 1202.55,-322.36 1262.54,-296.76"/>
<polygon fill="black" stroke="black" points="1263.8,-298.89 1269.3,-293.92 1261.9,-294.37 1263.8,-298.89"/>
</g>
<!-- CanvasPainter&#45;&gt;CanvasGestures -->
<g id="edge54" class="edge">
<title>CanvasPainter&#45;&gt;CanvasGestures</title>
<path fill="none" stroke="black" d="M1138.68,-481C1116.36,-447.88 1005.03,-441.61 933.65,-441.1"/>
<polygon fill="black" stroke="black" points="933.46,-438.65 926.45,-441.06 933.43,-443.55 933.46,-438.65"/>
</g>
<!-- NodeEditor -->
<g id="node19" class="node">
<title>NodeEditor</title>
<polygon fill="#b8d8ff" stroke="black" stroke-width="2" points="1177.18,-621 1100.18,-621 1100.18,-585 1177.18,-585 1177.18,-621"/>
<text text-anchor="middle" x="1138.68" y="-600.2" font-family="Helvetica,sans-Serif" font-size="11.00">NodeEditor</text>
</g>
<!-- NodeEditor&#45;&gt;NodeGeometry -->
<g id="edge74" class="edge">
<title>NodeEditor&#45;&gt;NodeGeometry</title>
<path fill="none" stroke="black" d="M125.68,-152C140.73,-133.87 147.38,-130.65 156.68,-109"/>
<path fill="none" stroke="black" d="M156.68,-107C177.89,-57.63 262.24,-117.22 269.68,-64"/>
<path fill="none" stroke="black" d="M269.68,-62C272.85,-39.34 596.3,-25.59 730.42,-20.86"/>
<polygon fill="black" stroke="black" points="730.52,-23.31 737.43,-20.61 730.35,-18.41 730.52,-23.31"/>
</g>
<!-- NodeEditor&#45;&gt;Repaint -->
<g id="edge72" class="edge">
<title>NodeEditor&#45;&gt;Repaint</title>
<path fill="none" stroke="black" d="M1464.68,-359C1461.53,-341.96 1451.09,-330.76 1464.68,-320"/>
</g>
<!-- NodeEditor&#45;&gt;CanvasReport -->
<g id="edge73" class="edge">
<title>NodeEditor&#45;&gt;CanvasReport</title>
<path fill="none" stroke="black" d="M1141.36,-584.79C1141.77,-577.81 1141.36,-569.81 1138.68,-563"/>
<path fill="none" stroke="black" d="M1138.68,-562C1130.21,-540.45 750.86,-491.35 729.68,-482"/>
<path fill="none" stroke="black" d="M729.68,-481C663.04,-454.34 640.12,-472.8 569.68,-459 467.49,-438.99 437.15,-444.8 342.68,-401"/>
<path fill="none" stroke="black" d="M342.68,-400C243.86,-360.15 198.89,-387.78 116.68,-320"/>
<path fill="none" stroke="black" d="M116.68,-319C77.91,-289.8 51.44,-311.69 14.68,-280"/>
<path fill="none" stroke="black" d="M14.68,-278C-41.34,-229.7 78.44,-210.92 125.68,-154"/>
<path fill="none" stroke="black" d="M125.68,-152C136.09,-133.67 99.69,-129.21 105.68,-109"/>
<path fill="none" stroke="black" d="M105.68,-107C123.34,-47.44 213.13,-120.63 238.68,-64"/>
<path fill="none" stroke="black" d="M238.68,-62C241.28,-56.23 242.16,-49.56 242.17,-43.23"/>
<polygon fill="black" stroke="black" points="244.61,-42.89 241.84,-36.01 239.72,-43.12 244.61,-42.89"/>
</g>
<!-- NodeEditor&#45;&gt;CanvasHistory -->
<g id="edge61" class="edge">
<title>NodeEditor&#45;&gt;CanvasHistory</title>
<path fill="none" stroke="black" d="M14.68,-278C-58,-223.01 314.4,-166.35 403.68,-148 519.44,-124.21 552.08,-145.28 668.68,-126 672.68,-125.34 676.79,-124.56 680.91,-123.71"/>
<polygon fill="black" stroke="black" points="681.52,-126.08 687.85,-122.21 680.49,-121.29 681.52,-126.08"/>
</g>
<!-- NodeEditor&#45;&gt;CanvasSelection -->
<g id="edge62" class="edge">
<title>NodeEditor&#45;&gt;CanvasSelection</title>
<path fill="none" stroke="black" d="M116.68,-319C30.68,-261.56 454.25,-218.23 616.01,-204.01"/>
<polygon fill="black" stroke="black" points="616.28,-206.45 623.04,-203.4 615.86,-201.56 616.28,-206.45"/>
</g>
<!-- NodeEditor&#45;&gt;Viewport -->
<g id="edge63" class="edge">
<title>NodeEditor&#45;&gt;Viewport</title>
<path fill="none" stroke="black" d="M729.68,-481C696.96,-466.26 740.98,-429.12 718.68,-401"/>
<path fill="none" stroke="black" d="M718.68,-400C697.7,-367.61 669.62,-394.4 634.68,-378 594.6,-359.19 532.73,-359.01 553.68,-320"/>
</g>
<!-- NodeEditor&#45;&gt;KnobLinking -->
<g id="edge69" class="edge">
<title>NodeEditor&#45;&gt;KnobLinking</title>
<path fill="none" stroke="black" d="M1464.68,-400C1464.51,-382.67 1467.83,-378.04 1464.68,-361"/>
<path fill="none" stroke="black" d="M1464.68,-359C1460.66,-337.23 1417.36,-334.97 1433.68,-320"/>
</g>
<!-- NodeEditor&#45;&gt;UndescribedTags -->
<g id="edge70" class="edge">
<title>NodeEditor&#45;&gt;UndescribedTags</title>
<path fill="none" stroke="black" d="M1138.68,-562C1131.59,-547.76 1410.05,-497.49 1413.68,-482"/>
<path fill="none" stroke="black" d="M1413.68,-481C1414.2,-478.37 1281.73,-343.73 1279.68,-342 1262.15,-327.13 1241.07,-312.46 1223.71,-301.12"/>
<polygon fill="black" stroke="black" points="1224.7,-298.84 1217.5,-297.09 1222.04,-302.95 1224.7,-298.84"/>
</g>
<!-- NodeEditor&#45;&gt;SocketDial -->
<g id="edge68" class="edge">
<title>NodeEditor&#45;&gt;SocketDial</title>
<path fill="none" stroke="black" d="M1413.68,-481C1431.11,-442.61 1464.68,-443.17 1464.68,-401"/>
<path fill="none" stroke="black" d="M1464.68,-400C1461.42,-384.77 1383.89,-331.15 1338.67,-301"/>
<polygon fill="black" stroke="black" points="1339.97,-298.92 1332.78,-297.09 1337.26,-303 1339.97,-298.92"/>
</g>
<!-- NodeEditor&#45;&gt;CanvasEdits -->
<g id="edge64" class="edge">
<title>NodeEditor&#45;&gt;CanvasEdits</title>
<path fill="none" stroke="black" d="M342.68,-400C337,-397.36 335.42,-391.54 335.73,-385.17"/>
<polygon fill="black" stroke="black" points="338.16,-385.45 336.69,-378.18 333.31,-384.78 338.16,-385.45"/>
</g>
<!-- NodeEditor&#45;&gt;CanvasTips -->
<g id="edge67" class="edge">
<title>NodeEditor&#45;&gt;CanvasTips</title>
<path fill="none" stroke="black" d="M718.68,-400C715.13,-395.52 715.18,-390.11 716.96,-384.76"/>
<polygon fill="black" stroke="black" points="719.32,-385.48 719.99,-378.09 714.86,-383.45 719.32,-385.48"/>
</g>
<!-- NodeEditor&#45;&gt;CanvasClipboard -->
<g id="edge65" class="edge">
<title>NodeEditor&#45;&gt;CanvasClipboard</title>
<path fill="none" stroke="black" d="M729.68,-481C715.28,-474.51 699.49,-467.76 685.07,-461.73"/>
<polygon fill="black" stroke="black" points="685.95,-459.44 678.55,-459.01 684.07,-463.96 685.95,-459.44"/>
</g>
<!-- NodeEditor&#45;&gt;CanvasGestures -->
<g id="edge66" class="edge">
<title>NodeEditor&#45;&gt;CanvasGestures</title>
<path fill="none" stroke="black" d="M729.68,-481C711.88,-472.98 765.4,-460.77 811.96,-452.15"/>
<polygon fill="black" stroke="black" points="812.62,-454.52 819.07,-450.85 811.74,-449.7 812.62,-454.52"/>
</g>
<!-- NodeEditor&#45;&gt;CanvasPainter -->
<g id="edge71" class="edge">
<title>NodeEditor&#45;&gt;CanvasPainter</title>
<path fill="none" stroke="black" d="M1138.68,-562C1136.45,-557.52 1135.51,-552.38 1135.29,-547.33"/>
<polygon fill="black" stroke="black" points="1137.75,-547.13 1135.44,-540.08 1132.85,-547.03 1137.75,-547.13"/>
</g>
</g>
</svg>
